<svg xmlns="http://www.w3.org/2000/svg"><style>:root svg:not(:target){display:none}</style><svg fill="none" id="analytics" viewBox="0 0 100 100"><path d="m5.227 69.18 17.846-38.356L40.92 69.179l17.846-38.355 17.846 38.355 17.846-38.355" stroke="#2FDBBC" stroke-width="10" stroke-linecap="round" stroke-linejoin="round"></path></svg><svg fill="none" id="appstore" viewBox="0 0 194 57"><path d="M194 51.286c0 3.157-2.497 5.714-5.586 5.714H5.594C2.506 57 0 54.443 0 51.286V5.721C0 2.566 2.506 0 5.594 0h182.818c3.091 0 5.587 2.566 5.587 5.721L194 51.286Z" fill="#242424"></path><path d="M42.692 26.696c-.043-4.521 3.834-6.721 4.012-6.824-2.196-3.09-5.6-3.512-6.795-3.546-2.859-.29-5.631 1.651-7.087 1.651-1.486 0-3.728-1.623-6.145-1.575-3.11.046-6.019 1.784-7.614 4.483-3.293 5.504-.837 13.592 2.318 18.04 1.578 2.18 3.422 4.612 5.836 4.527 2.361-.094 3.243-1.454 6.093-1.454 2.823 0 3.652 1.454 6.113 1.399 2.535-.04 4.13-2.189 5.653-4.387 1.824-2.497 2.556-4.957 2.585-5.083-.06-.02-4.922-1.811-4.97-7.23ZM38.041 13.4c1.27-1.534 2.14-3.62 1.898-5.737-1.838.078-4.137 1.227-5.46 2.727-1.172 1.322-2.218 3.488-1.948 5.525 2.065.149 4.185-1.006 5.51-2.516ZM76.866 43.139h-3.3l-1.808-5.484h-6.283l-1.722 5.484H60.54l6.225-18.67h3.845l6.256 18.67Zm-5.653-7.785-1.635-4.875c-.173-.498-.497-1.671-.975-3.517h-.058c-.19.794-.497 1.966-.918 3.517l-1.606 4.875h5.192ZM92.876 36.243c0 2.29-.641 4.1-1.923 5.428-1.148 1.182-2.574 1.773-4.275 1.773-1.837 0-3.156-.637-3.96-1.91h-.058v7.091h-3.098V34.109c0-1.44-.04-2.917-.115-4.432h2.724l.173 2.134h.059c1.033-1.608 2.6-2.41 4.705-2.41 1.645 0 3.018.627 4.117 1.882 1.101 1.257 1.65 2.91 1.65 4.96Zm-3.157.11c0-1.311-.305-2.392-.918-3.242-.67-.886-1.57-1.33-2.697-1.33-.765 0-1.46.247-2.08.734a3.387 3.387 0 0 0-1.219 1.926c-.096.37-.144.674-.144.912v2.245c0 .98.311 1.806.933 2.48.622.675 1.43 1.012 2.424 1.012 1.167 0 2.075-.435 2.725-1.302.65-.868.976-2.013.976-3.436ZM108.915 36.243c0 2.29-.641 4.1-1.924 5.428-1.147 1.182-2.572 1.773-4.274 1.773-1.837 0-3.156-.637-3.959-1.91H98.7v7.091h-3.098V34.109a89 89 0 0 0-.115-4.432h2.725l.173 2.134h.058c1.032-1.608 2.6-2.41 4.705-2.41 1.644 0 3.017.627 4.119 1.882 1.097 1.257 1.648 2.91 1.648 4.96Zm-3.157.11c0-1.311-.306-2.392-.919-3.242-.67-.886-1.567-1.33-2.696-1.33-.766 0-1.459.247-2.081.734a3.385 3.385 0 0 0-1.218 1.926c-.094.37-.144.674-.144.912v2.245c0 .98.311 1.806.93 2.48.622.674 1.43 1.012 2.427 1.012 1.167 0 2.075-.435 2.725-1.302.651-.868.976-2.013.976-3.436ZM126.847 37.904c0 1.588-.571 2.88-1.718 3.877-1.26 1.09-3.014 1.635-5.268 1.635-2.081 0-3.749-.388-5.012-1.163l.718-2.493c1.36.794 2.853 1.192 4.479 1.192 1.167 0 2.075-.255 2.728-.763.649-.508.973-1.19.973-2.04 0-.758-.267-1.396-.803-1.914-.534-.517-1.425-.998-2.668-1.443-3.386-1.22-5.078-3.005-5.078-5.354 0-1.535.593-2.793 1.78-3.772 1.183-.981 2.761-1.47 4.735-1.47 1.76 0 3.221.295 4.388.886l-.774 2.438c-1.09-.572-2.322-.858-3.701-.858-1.09 0-1.942.26-2.552.776-.516.461-.775 1.024-.775 1.69 0 .738.295 1.348.888 1.828.516.443 1.453.923 2.813 1.44 1.664.648 2.887 1.404 3.673 2.27.783.865 1.174 1.947 1.174 3.238ZM137.091 31.921h-3.415v6.537c0 1.662.601 2.492 1.807 2.492.554 0 1.013-.046 1.376-.138l.086 2.271c-.61.22-1.414.331-2.409.331-1.224 0-2.18-.36-2.87-1.08-.688-.721-1.033-1.93-1.033-3.63v-6.786h-2.035v-2.244h2.035v-2.465l3.043-.887v3.352h3.415v2.247ZM152.498 36.297c0 2.07-.613 3.768-1.837 5.097-1.283 1.368-2.986 2.05-5.109 2.05-2.046 0-3.675-.656-4.89-1.966-1.215-1.31-1.822-2.964-1.822-4.958 0-2.086.625-3.795 1.879-5.124 1.251-1.33 2.94-1.995 5.063-1.995 2.046 0 3.692.656 4.935 1.967 1.188 1.273 1.781 2.916 1.781 4.929Zm-3.214.097c0-1.242-.275-2.307-.831-3.195-.65-1.074-1.579-1.61-2.782-1.61-1.245 0-2.191.537-2.841 1.61-.556.89-.831 1.971-.831 3.25 0 1.242.275 2.307.831 3.194.67 1.075 1.606 1.61 2.814 1.61 1.183 0 2.111-.547 2.781-1.638.571-.905.859-1.981.859-3.221ZM162.569 32.307a5.573 5.573 0 0 0-.976-.082c-1.09 0-1.933.397-2.526 1.192-.516.702-.775 1.588-.775 2.659v7.063h-3.096l.029-9.222c0-1.552-.04-2.965-.117-4.239h2.699l.113 2.576h.086c.327-.885.843-1.598 1.549-2.132.69-.482 1.436-.721 2.24-.721.286 0 .544.02.774.054v2.852ZM176.425 35.771c0 .536-.036.988-.113 1.357h-9.295c.036 1.33.485 2.347 1.349 3.048.783.627 1.796.942 3.04.942 1.376 0 2.631-.212 3.761-.637l.485 2.076c-1.32.556-2.877.832-4.675.832-2.162 0-3.86-.614-5.095-1.842-1.232-1.228-1.85-2.876-1.85-4.944 0-2.03.574-3.72 1.724-5.069 1.203-1.44 2.829-2.159 4.875-2.159 2.01 0 3.531.72 4.565 2.16.818 1.143 1.229 2.557 1.229 4.236Zm-2.954-.776c.02-.886-.182-1.652-.602-2.3-.536-.831-1.36-1.247-2.469-1.247-1.013 0-1.837.406-2.466 1.22-.516.647-.822 1.422-.917 2.326h6.454v.001ZM70.189 12.982c0 1.652-.513 2.895-1.538 3.73-.949.77-2.297 1.156-4.044 1.156-.866 0-1.607-.037-2.228-.11V8.736c.81-.126 1.682-.191 2.623-.191 1.664 0 2.918.35 3.764 1.048.948.79 1.423 1.92 1.423 3.39Zm-1.606.041c0-1.07-.293-1.89-.88-2.463-.588-.571-1.445-.858-2.574-.858-.48 0-.888.031-1.227.096v6.859c.188.028.53.04 1.03.04 1.165 0 2.064-.312 2.698-.938.633-.626.953-1.538.953-2.736ZM78.703 14.425c0 1.017-.3 1.85-.902 2.504-.631.672-1.467 1.007-2.51 1.007-1.006 0-1.806-.321-2.404-.966-.595-.644-.893-1.457-.893-2.436 0-1.024.306-1.865.922-2.517.617-.652 1.445-.98 2.488-.98 1.006 0 1.814.322 2.426.966.58.626.873 1.434.873 2.421Zm-1.58.047c0-.61-.136-1.133-.408-1.57-.32-.527-.775-.79-1.366-.79-.612 0-1.077.263-1.397.79-.273.437-.408.968-.408 1.597 0 .61.137 1.133.409 1.57.33.527.789.791 1.382.791.58 0 1.037-.268 1.366-.805.281-.445.422-.973.422-1.583ZM90.12 11.173l-2.144 6.613H86.58l-.888-2.871a20.89 20.89 0 0 1-.55-2.137h-.028a15.206 15.206 0 0 1-.551 2.137l-.943 2.871H82.21l-2.016-6.613h1.565l.775 3.144c.187.743.341 1.452.465 2.123h.027c.114-.553.301-1.257.566-2.109l.972-3.157h1.24l.932 3.09c.226.753.409 1.478.55 2.177h.042c.103-.68.258-1.406.465-2.177l.831-3.09h1.495v-.001ZM98.014 17.786h-1.523v-3.788c0-1.167-.459-1.75-1.38-1.75-.452 0-.817.159-1.1.48-.28.322-.423.7-.423 1.134v3.923h-1.523v-4.723c0-.58-.019-1.21-.055-1.892h1.338l.071 1.034h.043c.177-.322.441-.587.789-.799a2.643 2.643 0 0 1 1.38-.371c.64 0 1.171.199 1.594.599.526.49.79 1.22.79 2.191v3.962ZM102.214 17.786h-1.521V8.138h1.521v9.648ZM111.181 14.425c0 1.017-.301 1.85-.903 2.504-.631.672-1.468 1.007-2.51 1.007-1.007 0-1.807-.321-2.403-.966-.596-.644-.894-1.457-.894-2.436 0-1.024.307-1.865.923-2.517.616-.652 1.444-.98 2.486-.98 1.007 0 1.814.322 2.427.966.581.626.874 1.434.874 2.421Zm-1.582.047c0-.61-.136-1.133-.408-1.57-.318-.527-.774-.79-1.364-.79-.614 0-1.079.263-1.397.79-.273.437-.408.968-.408 1.597 0 .61.136 1.133.408 1.57.33.527.789.791 1.382.791.581 0 1.036-.268 1.365-.805.283-.445.422-.973.422-1.583ZM118.551 17.786h-1.368l-.113-.762h-.042c-.468.608-1.135.912-2.001.912-.647 0-1.17-.2-1.564-.599-.357-.362-.536-.812-.536-1.347 0-.808.349-1.424 1.051-1.85.7-.427 1.685-.636 2.954-.626v-.123c0-.872-.474-1.307-1.423-1.307-.675 0-1.271.165-1.786.49l-.309-.965c.636-.38 1.422-.571 2.35-.571 1.79 0 2.688.912 2.688 2.736v2.435c0 .66.033 1.187.099 1.577Zm-1.581-2.273v-1.02c-1.68-.028-2.52.417-2.52 1.333 0 .345.096.603.292.776.196.172.446.258.744.258.334 0 .647-.102.932-.306a1.249 1.249 0 0 0 .552-1.04ZM127.205 17.786h-1.352l-.071-1.062h-.042c-.432.808-1.167 1.212-2.2 1.212-.826 0-1.513-.313-2.058-.938-.545-.626-.817-1.438-.817-2.436 0-1.07.295-1.937.888-2.6.574-.617 1.278-.925 2.115-.925.919 0 1.563.298 1.929.897h.029V8.139h1.525v7.867c0 .643.017 1.237.054 1.781Zm-1.579-2.789v-1.102c0-.191-.014-.346-.042-.463a1.662 1.662 0 0 0-.55-.891 1.53 1.53 0 0 0-1.019-.36c-.568 0-1.013.217-1.34.653-.324.436-.488.993-.488 1.674 0 .653.155 1.184.468 1.592.33.435.774.652 1.331.652.5 0 .899-.18 1.203-.544.294-.335.437-.74.437-1.21ZM140.229 14.425c0 1.017-.3 1.85-.902 2.504-.631.672-1.465 1.007-2.51 1.007-1.004 0-1.805-.321-2.403-.966-.596-.644-.894-1.457-.894-2.436 0-1.024.307-1.865.923-2.517.616-.652 1.444-.98 2.489-.98 1.004 0 1.814.322 2.424.966.581.626.873 1.434.873 2.421Zm-1.578.047c0-.61-.136-1.133-.408-1.57-.321-.527-.775-.79-1.368-.79-.61 0-1.075.263-1.396.79-.273.437-.408.968-.408 1.597 0 .61.136 1.133.408 1.57.33.527.789.791 1.382.791.581 0 1.039-.268 1.367-.805.281-.445.423-.973.423-1.583ZM148.418 17.786h-1.521v-3.788c0-1.167-.46-1.75-1.382-1.75-.452 0-.817.159-1.099.48-.282.322-.423.7-.423 1.134v3.923h-1.524v-4.723c0-.58-.018-1.21-.054-1.892h1.337l.071 1.034h.042c.179-.322.444-.587.789-.799a2.651 2.651 0 0 1 1.382-.371c.638 0 1.17.199 1.593.599.528.49.789 1.22.789 2.191v3.962ZM158.667 12.274h-1.677v3.213c0 .816.298 1.225.888 1.225.274 0 .5-.023.679-.07l.039 1.116c-.301.11-.696.164-1.183.164-.601 0-1.069-.176-1.408-.53-.34-.354-.508-.948-.508-1.783v-3.335h-1.002v-1.101h1.002V9.96l1.492-.435v1.645h1.677v1.103h.001ZM166.73 17.786h-1.525v-3.76c0-1.185-.459-1.779-1.379-1.779-.706 0-1.189.344-1.453 1.032a1.79 1.79 0 0 0-.071.528v3.978h-1.522V8.138h1.522v3.986h.029c.479-.725 1.167-1.087 2.058-1.087.63 0 1.152.199 1.566.599.516.498.775 1.239.775 2.218v3.932ZM175.046 14.166c0 .264-.02.486-.056.667h-4.568c.021.653.239 1.152.662 1.497.386.308.885.463 1.495.463.676 0 1.292-.104 1.847-.313l.238 1.021c-.649.272-1.414.408-2.299.408-1.061 0-1.896-.301-2.501-.904-.607-.604-.908-1.413-.908-2.429 0-.998.281-1.828.846-2.49.59-.707 1.388-1.06 2.395-1.06.985 0 1.733.353 2.239 1.06.408.56.61 1.255.61 2.08Zm-1.453-.38c.012-.436-.088-.812-.295-1.13-.264-.408-.667-.612-1.212-.612-.497 0-.902.199-1.212.599a2.185 2.185 0 0 0-.452 1.143h3.171Z" fill="#fff"></path></svg><svg fill="none" id="cards-budss-1" viewBox="0 0 88 167"><g opacity=".7"><path fill-rule="evenodd" clip-rule="evenodd" d="M76.688 32.62c5.42-1.376 10.915 1.96 12.195 7.404l20.666 87.907a9.999 9.999 0 0 1-5.472 11.334l-44.784 21.101a10.01 10.01 0 0 1-5.477.879l-21.76-2.664a10 10 0 0 1-8.54-7.723L3.291 61.292a10 10 0 0 1 7.294-11.895l7.27-1.846 16.711-4.24 14.39-3.653 14.389-3.652 13.343-3.386Z" fill="#A64CED"></path><path d="M34.566 43.31c-2.127-8.38-3.596-25.85 7.544-28.677 11.14-2.827 18.798 13.071 21.235 21.373M34.566 43.31l14.39-3.652m-14.39 3.652-16.71 4.241m45.489-11.545 13.343-3.386c5.42-1.376 10.915 1.96 12.195 7.404l20.666 87.907a9.999 9.999 0 0 1-5.472 11.334l-44.784 21.101a10.01 10.01 0 0 1-5.477.879l-21.76-2.664a10 10 0 0 1-8.54-7.723L3.291 61.292a10 10 0 0 1 7.294-11.895l7.27-1.846m45.49-11.545-14.39 3.652m0 0C44.985 26.683 33.922 1.498 21.422 4.56 8.923 7.62 13.837 34.496 17.856 47.551" stroke="#A64CED" stroke-width="2" stroke-linecap="round" stroke-linejoin="round"></path><path d="m55.029 150.066-5.547-19.932M32.842 70.34l11.093 39.863" stroke="#fff" stroke-width="2" stroke-linecap="round" stroke-linejoin="round"></path></g></svg><svg fill="none" id="cards-budss-2" viewBox="0 0 93 86"><g opacity=".7"><path fill-rule="evenodd" clip-rule="evenodd" d="M52.764 120.321c5.157 1.977 10.94-.601 12.917-5.758l21.997-57.382c1.977-5.157-.601-10.94-5.758-12.917l-10.2-3.91-11.165-4.28-11.164-4.28-10.118-3.878-.78-.299c-5.157-1.977-10.94.601-12.917 5.758L3.58 90.757c-1.976 5.157.602 10.94 5.758 12.917l43.427 16.647Z" fill="#FFAA4C"></path><path d="m71.72 40.354 10.2 3.91c5.157 1.977 7.735 7.76 5.758 12.917L65.68 114.563c-1.977 5.157-7.76 7.735-12.917 5.758L9.337 103.674c-5.156-1.977-7.734-7.76-5.758-12.917l21.997-57.382c1.977-5.157 7.76-7.735 12.917-5.758l.78.3M71.72 40.353c1.977-7.245 3.365-22.559-6.897-25.852-10.262-3.294-14.564 10.156-15.432 17.293m22.329 8.559-11.165-4.28m-11.164-4.28 11.164 4.28m-11.164-4.28-10.118-3.878m21.282 8.158c3.9-9.913 9.4-30.433.198-33.21C51.552.087 42.6 18.408 39.273 27.916" stroke="#FFAA4C" stroke-width="2" stroke-linecap="round" stroke-linejoin="round"></path></g></svg><svg fill="none" id="cards-budss-3" viewBox="0 0 72 64"><g opacity=".7"><path fill-rule="evenodd" clip-rule="evenodd" d="M39.99 83.52c-4.696 2.906-10.859 1.454-13.764-3.243L6 47.585c-2.905-4.697-1.454-10.86 3.243-13.765l4.263-2.638 7.296-4.513 7.295-4.514 6.611-4.09a7.774 7.774 0 0 1 10.702 2.521l21.397 34.585c2.905 4.697 1.453 10.86-3.243 13.765L39.99 83.52Z" fill="#2FDBBC"></path><path d="M13.506 31.182 9.243 33.82C4.546 36.725 3.095 42.888 6 47.585l20.226 32.692c2.905 4.697 9.068 6.148 13.765 3.243l23.573-14.584c4.696-2.906 6.148-9.068 3.242-13.765L45.41 20.586a7.774 7.774 0 0 0-10.702-2.52v0M13.506 31.181c-2.365-4.841-5.397-15.45 1.395-19.146 6.791-3.698 11.627 5.206 13.196 10.12m-14.59 9.026 7.295-4.513m7.295-4.514L20.8 26.67m7.296-4.514 6.611-4.09M20.802 26.67c-4.078-6.465-10.706-20.191-4.593-23.382 6.113-3.191 14.88 8.522 18.5 14.778" stroke="#2FDBBC" stroke-width="2" stroke-linecap="round" stroke-linejoin="round"></path></g></svg><svg fill="none" id="cards-budss-4" viewBox="0 0 202 83"><path opacity=".7" d="M130.231 81.673h26.616" stroke="#2FDBBC" stroke-width="159.698" stroke-linecap="round"></path><path d="M162.382 47.01c-1.366 4.502-11.342 9.835-17.474 6.832" stroke="#000" stroke-width="2.662" stroke-linecap="round" stroke-linejoin="round"></path><circle cx="126.904" cy="42.414" r="3.327" fill="#000"></circle><circle cx="154.851" cy="37.09" r="3.327" fill="#000"></circle><path d="M21.743 39.763c20.378.035 19.8 13.806-2.446 8.509 6.511 1.817 16.416 3.899 13.38 9.002-3.035 5.102-14.73-.336-14.73-.336 8.257 4.504 10.414 7.913 7.565 10.385-1.246 1.08-3.372 1.504-5.84 1.307m58.632-2.293c-26.634 12.8-33.152-7.18-35.24-16.78-2.087-9.601 5.166-37.19-4.087-38.573-7.442-1.112-9.757 8.317-9.175 23.065C25.695 32.133 7.25 32.152 3.15 48.4.015 60.82 11.653 67.992 19.672 68.63M73.59 99.45c-23.413 5.066-45.272-2.712-53.92-30.82" stroke="#000" stroke-width="2.662" stroke-linecap="round" stroke-linejoin="round"></path></svg><svg fill="none" id="cards-budss-5" viewBox="0 0 210 301"><path opacity=".7" d="M116.577 83.718v68.098" stroke="#A64CED" stroke-width="163.436" stroke-linecap="round"></path><path d="M141.773 71.46c-2.043 8.172-15.663 18.387-25.877 18.387" stroke="#000" stroke-width="2.724" stroke-linecap="round" stroke-linejoin="round"></path><path d="M165.237 117.086c-2.497 9.534-10.215 25.741-21.111 14.3-13.619-14.3-27.92-35.41-42.22-36.772-14.301-1.363-22.473 3.404-20.43 8.852 1.366 3.642 7.601 4.038 13.62 3.832m8.171-.427c-2.257.075-5.187.325-8.171.427m14.981 9.107c-2.724.953-6.129.988-8.171.953m-6.81-10.06c-10.215 1.616-8.853 9.788 6.81 10.06m0 0c-9.534 1.771-6.81 8.581 1.361 10.006m5.448-.063c-2.14.377-3.955.359-5.448.063m0 0c-5.025 3.299-3.64 8.472 3.405 9.1m5.448-.311c-2.083.368-3.902.449-5.448.311m0 0c15.663 33.738 52.436 47.358 78.994 21.481" stroke="#000" stroke-width="2.724" stroke-linecap="round"></path><circle cx="95.466" cy="66.693" r="3.405" fill="#000"></circle><circle cx="124.068" cy="61.245" r="3.405" fill="#000"></circle><path d="M113.853 230.81v93.975H56.65l6.245-5.464a13.619 13.619 0 0 0 4.651-10.25v-94.605M119.301 230.81v93.975h57.202l-6.244-5.464a13.618 13.618 0 0 1-4.652-10.25v-94.605" stroke="#000" stroke-width="2.724" stroke-linecap="round" stroke-linejoin="round"></path><path d="M50.33 71.871c-1.519 8.202-2.148 16.524-3.307 24.783M71.833 63.288c-6.899 11.52-12.651 23.982-17.731 36.406M84.21 83.278c-7.922 4.68-16.974 14.599-23.79 21.226" stroke="#fff" stroke-width="2.724" stroke-miterlimit="1.5" stroke-linecap="round" stroke-linejoin="round"></path><rect opacity=".7" x="7.62" y="110.38" width="50.393" height="93.975" rx="13.62" transform="rotate(-15 7.62 110.38)" fill="#2FDBBC"></rect><rect opacity=".7" x="14.292" y="114.232" width="14.189" height="21.034" rx="7.094" transform="rotate(-15 14.292 114.232)" fill="#2FDBBC"></rect><path d="M49.369 141.961c-1.495-6.678-28.13-7.248-36.301 6.087-8.172 13.335-3.877 33.918 9.743 38.129 13.62 4.211 29.963-.702 30.644-7.018.545-5.053-11.105-4.441-17.234-4.441 6.81-.702 18.387-.472 17.234-6.087-1.153-5.614-14.3-3.977-20.43-3.509 7.264-1.17 21.583-1.634 20.43-8.422-1.153-6.788-14.964-4.207-22-3.037 7.717-2.106 19.748-3.51 17.914-11.702Z" fill="#BE7FEF" stroke="#000" stroke-width="2.724" stroke-linecap="round" stroke-linejoin="round"></path></svg><svg fill="none" id="close" viewBox="0 0 26 26"><rect width="26" height="26" rx="13" fill="#fff"></rect><path d="m13 13 3.535 3.535m-7.07 0L13 13l-3.536 3.535Zm7.07-7.07L13 13l3.535-3.536ZM13 13 9.464 9.464 13 13Z" stroke="#B9B9B9" stroke-width="1.5" stroke-linecap="round" stroke-linejoin="round"></path></svg><svg fill="none" id="contactless" viewBox="0 0 100 100"><path d="M39.484 18.672c1.61-4.353 7.767-4.353 9.378 0l6.444 17.414a5 5 0 0 0 2.954 2.954l17.413 6.444c4.353 1.61 4.353 7.767 0 9.378L58.26 61.306a5 5 0 0 0-2.954 2.954l-6.444 17.413c-1.61 4.353-7.768 4.353-9.378 0L33.04 64.26a5 5 0 0 0-2.954-2.954l-17.413-6.444c-4.354-1.61-4.354-7.768 0-9.378l17.413-6.444a5 5 0 0 0 2.954-2.954l6.444-17.413Z" stroke="#FFAA4C" stroke-width="10"></path></svg><svg fill="none" id="facebook" viewBox="0 0 40 73"><path d="M36.517 41.008 38.512 28h-12.48v-8.438c0-3.558 1.743-7.03 7.333-7.03h5.674V1.456S33.89.578 28.966.578c-10.279 0-16.997 6.23-16.997 17.508V28H.543v13.008h11.426v31.445a45.49 45.49 0 0 0 14.062 0V41.008h10.486Z" fill="#fff"></path></svg><svg fill="none" id="fraud" viewBox="0 0 101 100"><rect x="5.706" y="29.851" width="55.876" height="29.346" rx="14.673" stroke="#C1DB2F" stroke-width="10"></rect><rect x="37.089" y="46.966" width="55.876" height="29.346" rx="14.673" transform="rotate(-22.192 37.09 46.966)" stroke="#C1DB2F" stroke-width="10"></rect></svg><svg fill="none" id="googleplay" viewBox="0 0 196 57"><path d="M188.741 57H7.259C3.27 57 0 53.792 0 49.875V7.125C0 3.208 3.268 0 7.26 0H188.74C192.732 0 196 3.208 196 7.125v42.75c0 3.917-3.268 7.125-7.259 7.125Z" fill="#242424"></path><path d="M68.843 14.598c0 1.19-.363 2.143-1.078 2.853-.822.843-1.892 1.267-3.205 1.267-1.254 0-2.324-.431-3.203-1.281-.88-.862-1.32-1.92-1.32-3.187 0-1.266.44-2.324 1.32-3.18.879-.856 1.95-1.287 3.203-1.287.625 0 1.22.126 1.788.362.566.237 1.027.557 1.361.953l-.758.751c-.583-.675-1.376-1.008-2.39-1.008a3.36 3.36 0 0 0-2.382.946c-.666.634-1 1.455-1 2.463s.334 1.837 1 2.47c.674.626 1.467.947 2.381.947.971 0 1.788-.32 2.432-.953.425-.419.666-.996.73-1.733H64.56v-1.03h4.218c.05.223.065.438.065.647ZM75.534 11.028h-3.961v2.707h3.571v1.03h-3.571v2.707h3.962v1.05H70.45V9.979h5.084v1.049ZM80.257 18.522h-1.122v-7.494h-2.43v-1.05h5.984v1.05h-2.432v7.494ZM87.019 18.522V9.979h1.12v8.543h-1.12ZM93.102 18.522h-1.113v-7.494H89.55v-1.05h5.991v1.05h-2.44v7.494ZM106.869 17.423c-.858.864-1.922 1.295-3.19 1.295-1.276 0-2.34-.431-3.198-1.295-.856-.862-1.283-1.92-1.283-3.173 0-1.252.427-2.31 1.283-3.172.858-.864 1.922-1.295 3.198-1.295 1.261 0 2.325.431 3.183 1.302.864.87 1.29 1.92 1.29 3.165 0 1.253-.426 2.31-1.283 3.173Zm-5.559-.716c.647.64 1.432.96 2.369.96.929 0 1.722-.32 2.361-.96.644-.64.971-1.46.971-2.457 0-.995-.327-1.816-.971-2.456-.639-.64-1.432-.96-2.361-.96-.937 0-1.722.32-2.369.96-.644.64-.97 1.46-.97 2.456s.326 1.817.97 2.457ZM109.726 18.522V9.979h1.361l4.232 6.644h.049l-.049-1.643V9.98h1.12v8.543h-1.169l-4.432-6.972h-.049l.049 1.65v5.322h-1.112ZM98.922 30.997c-3.41 0-6.196 2.547-6.196 6.062 0 3.486 2.786 6.06 6.196 6.06 3.417 0 6.203-2.574 6.203-6.06 0-3.515-2.786-6.062-6.203-6.062Zm0 9.735c-1.871 0-3.48-1.516-3.48-3.673 0-2.186 1.609-3.675 3.48-3.675s3.488 1.49 3.488 3.675c0 2.157-1.617 3.673-3.488 3.673Zm-13.519-9.735c-3.417 0-6.195 2.547-6.195 6.062 0 3.486 2.778 6.06 6.195 6.06 3.416 0 6.196-2.574 6.196-6.06 0-3.515-2.78-6.062-6.196-6.062Zm0 9.735c-1.873 0-3.488-1.516-3.488-3.673 0-2.186 1.615-3.675 3.488-3.675 1.871 0 3.481 1.49 3.481 3.675 0 2.157-1.61 3.673-3.48 3.673Zm-16.086-7.877v2.576h6.266c-.183 1.439-.673 2.497-1.424 3.235-.915.89-2.34 1.879-4.842 1.879-3.857 0-6.876-3.055-6.876-6.84 0-3.785 3.02-6.84 6.876-6.84 2.085 0 3.602.8 4.722 1.836l1.85-1.815c-1.567-1.468-3.65-2.595-6.572-2.595-5.288 0-9.733 4.223-9.733 9.414 0 5.19 4.444 9.414 9.733 9.414 2.858 0 5.005-.92 6.693-2.644 1.73-1.697 2.268-4.084 2.268-6.011 0-.599-.05-1.15-.141-1.609h-8.82Zm65.78 1.997c-.51-1.356-2.084-3.855-5.289-3.855-3.176 0-5.82 2.456-5.82 6.062 0 3.395 2.617 6.06 6.125 6.06 2.837 0 4.474-1.698 5.147-2.687l-2.105-1.376c-.703 1.008-1.659 1.676-3.042 1.676-1.374 0-2.359-.618-2.991-1.837l8.26-3.354-.285-.69Zm-8.421 2.018c-.071-2.337 1.849-3.534 3.225-3.534 1.078 0 1.992.529 2.297 1.286l-5.522 2.248Zm-6.713 5.88h2.715V24.937h-2.715V42.75Zm-4.446-10.403h-.091c-.61-.709-1.773-1.35-3.247-1.35-3.092 0-5.92 2.665-5.92 6.081 0 3.397 2.828 6.04 5.92 6.04 1.474 0 2.637-.646 3.247-1.376h.091v.869c0 2.317-1.262 3.562-3.296 3.562-1.659 0-2.688-1.175-3.113-2.164l-2.361.967c.681 1.607 2.483 3.584 5.474 3.584 3.183 0 5.869-1.838 5.869-6.31V31.365h-2.573v.981Zm-3.106 8.385c-1.871 0-3.437-1.538-3.437-3.654 0-2.135 1.566-3.694 3.437-3.694 1.844 0 3.298 1.559 3.298 3.694 0 2.116-1.454 3.654-3.298 3.654Zm35.397-15.795h-6.494V42.75h2.708V36h3.786c3.007 0 5.956-2.135 5.956-5.532 0-3.395-2.957-5.53-5.956-5.53Zm.07 8.586h-3.856v-6.108h3.856a3.12 3.12 0 0 1 3.176 3.053 3.137 3.137 0 0 1-3.176 3.055Zm16.738-2.56c-1.956 0-3.99.848-4.827 2.727l2.403.989c.517-.989 1.468-1.31 2.473-1.31 1.405 0 2.83.83 2.851 2.291v.188c-.49-.278-1.539-.69-2.829-.69-2.588 0-5.225 1.398-5.225 4.008 0 2.387 2.12 3.924 4.503 3.924 1.822 0 2.827-.807 3.459-1.746h.092v1.377h2.616V35.89c0-3.159-2.403-4.926-5.516-4.926Zm-.326 9.762c-.886 0-2.12-.431-2.12-1.51 0-1.378 1.539-1.907 2.871-1.907 1.192 0 1.751.258 2.475.599-.212 1.65-1.658 2.818-3.226 2.818Zm15.369-9.372-3.112 7.722h-.093l-3.217-7.722h-2.92l4.834 10.791-2.758 6.005h2.829l7.45-16.796h-3.013ZM155.252 42.75h2.715V24.937h-2.715V42.75Z" fill="#fff"></path><path d="M15.15 10.743c-.427.438-.673 1.12-.673 2.004V44.26c0 .883.246 1.566.673 2.004l.105.096 17.992-17.652v-.417L15.255 10.64l-.105.103Z" fill="url(#googleplay_0)"></path><path d="m39.238 34.595-5.99-5.887v-.417l5.997-5.887.135.077 7.103 3.967c2.027 1.125 2.027 2.978 0 4.11l-7.103 3.96-.142.077Z" fill="url(#googleplay_1)"></path><path d="m39.38 34.52-6.133-6.02L15.15 46.265c.673.694 1.771.778 3.02.084l21.21-11.83Z" fill="url(#googleplay_2)"></path><path d="m39.38 22.481-21.21-11.83c-1.249-.687-2.347-.603-3.02.092L33.248 28.5l6.132-6.019Z" fill="url(#googleplay_3)"></path><defs><linearGradient id="googleplay_0" x1="31.65" y1="44.589" x2="7.739" y2="20.228" gradientUnits="userSpaceOnUse"><stop stop-color="#00A0FF"></stop><stop offset=".007" stop-color="#00A1FF"></stop><stop offset=".26" stop-color="#00BEFF"></stop><stop offset=".512" stop-color="#00D2FF"></stop><stop offset=".76" stop-color="#00DFFF"></stop><stop offset="1" stop-color="#00E3FF"></stop></linearGradient><linearGradient id="googleplay_1" x1="49.122" y1="28.498" x2="13.992" y2="28.498" gradientUnits="userSpaceOnUse"><stop stop-color="#FFE000"></stop><stop offset=".409" stop-color="#FFBD00"></stop><stop offset=".775" stop-color="orange"></stop><stop offset="1" stop-color="#FF9C00"></stop></linearGradient><linearGradient id="googleplay_2" x1="36.045" y1="25.229" x2="3.62" y2="-7.807" gradientUnits="userSpaceOnUse"><stop stop-color="#FF3A44"></stop><stop offset="1" stop-color="#C31162"></stop></linearGradient><linearGradient id="googleplay_3" x1="10.595" y1="56.749" x2="25.074" y2="41.997" gradientUnits="userSpaceOnUse"><stop stop-color="#32A071"></stop><stop offset=".069" stop-color="#2DA771"></stop><stop offset=".476" stop-color="#15CF74"></stop><stop offset=".801" stop-color="#06E775"></stop><stop offset="1" stop-color="#00F076"></stop></linearGradient></defs></svg><svg fill="none" id="increased" viewBox="0 0 100 100"><path d="M28.538 91.46C.136 81.13 8.376 56.697 31.036 49.51c28.326-8.982 26.6 26.511-.101 17.658-43.352-14.374-13.829-48.39 9.03-49.47" stroke="#A64CED" stroke-width="10" stroke-linecap="round" stroke-linejoin="round"></path><path d="m31.815 8.008 12.74 5.723-5.724 12.74" stroke="#A64CED" stroke-width="10" stroke-linecap="round" stroke-linejoin="round"></path></svg><svg fill="none" id="instagram" viewBox="0 0 46 46"><g clip-path="url(#instagram_0)" fill="#fff"><path d="M23.27 4.711c6.048 0 6.765.027 9.143.133 2.21.097 3.404.469 4.2.778 1.052.407 1.813.902 2.6 1.689.795.796 1.282 1.547 1.688 2.6.31.795.681 1.998.778 4.2.106 2.387.133 3.103.133 9.142 0 6.048-.026 6.764-.133 9.142-.097 2.21-.468 3.405-.778 4.2-.406 1.053-.902 1.813-1.689 2.6-.795.796-1.547 1.282-2.599 1.689-.796.31-1.998.68-4.2.778-2.387.106-3.103.132-9.142.132-6.048 0-6.765-.026-9.143-.132-2.21-.097-3.404-.469-4.2-.778-1.052-.407-1.812-.902-2.6-1.69-.795-.795-1.282-1.546-1.688-2.599-.31-.795-.681-1.998-.778-4.2-.106-2.387-.133-3.103-.133-9.142 0-6.048.027-6.764.133-9.143.097-2.21.468-3.404.778-4.2.407-1.052.902-1.812 1.689-2.599.795-.796 1.547-1.282 2.6-1.689.795-.31 1.997-.68 4.199-.778 2.378-.106 3.095-.133 9.142-.133Zm0-4.076c-6.145 0-6.914.027-9.328.133-2.405.106-4.058.495-5.49 1.052-1.495.584-2.76 1.353-4.015 2.617-1.264 1.256-2.033 2.52-2.617 4.006-.557 1.441-.946 3.085-1.052 5.49-.106 2.423-.133 3.192-.133 9.338 0 6.145.027 6.914.133 9.328.106 2.405.495 4.058 1.052 5.49.584 1.495 1.353 2.76 2.617 4.015a11.065 11.065 0 0 0 4.006 2.608c1.44.557 3.085.946 5.49 1.052 2.414.106 3.184.133 9.329.133 6.145 0 6.914-.026 9.328-.133 2.405-.106 4.058-.495 5.49-1.052a11.064 11.064 0 0 0 4.006-2.608 11.064 11.064 0 0 0 2.608-4.005c.557-1.442.947-3.086 1.053-5.491.106-2.414.132-3.183.132-9.328 0-6.146-.026-6.915-.132-9.329-.106-2.405-.495-4.058-1.053-5.49-.556-1.504-1.326-2.768-2.59-4.024a11.064 11.064 0 0 0-4.006-2.608c-1.44-.557-3.085-.946-5.49-1.052C30.185.662 29.416.635 23.27.635Z"></path><path d="M23.27 11.643c-6.419 0-11.626 5.208-11.626 11.628 0 6.419 5.207 11.627 11.627 11.627 6.419 0 11.627-5.208 11.627-11.627 0-6.42-5.208-11.628-11.627-11.628Zm0 19.17a7.543 7.543 0 0 1 0-15.084 7.543 7.543 0 0 1 0 15.084ZM38.072 11.184a2.715 2.715 0 1 1-2.715-2.715 2.72 2.72 0 0 1 2.715 2.715Z"></path></g><defs><clipPath id="instagram_0"><path fill="#fff" transform="translate(.635 .635)" d="M0 0h45.271v45.271H0z"></path></clipPath></defs></svg><svg fill="none" id="promo" viewBox="0 0 586 498"><path d="m795.584 419.496-544.942-1.467c-91.979-.247-166.342-75.012-166.094-166.991v0c.247-91.839 74.793-166.144 166.632-166.094l202.414.11" stroke="#FFAA4C" stroke-width="169" stroke-linecap="round"></path></svg><svg fill="none" id="rf" viewBox="0 0 22 16"><g clip-path="url(#rf_0)"><g clip-path="url(#rf_1)"><rect width="22" height="16" rx="2" fill="#1A47B8"></rect><path fill-rule="evenodd" clip-rule="evenodd" d="M0 10.667h22V16H0v-5.333Z" fill="#F93939"></path><path fill-rule="evenodd" clip-rule="evenodd" d="M0 0h22v5.333H0V0Z" fill="#fff"></path></g></g><defs><clipPath id="rf_0"><path fill="#fff" d="M0 0h22v16H0z"></path></clipPath><clipPath id="rf_1"><rect width="22" height="16" rx="2" fill="#fff"></rect></clipPath></defs></svg><svg fill="none" id="success" viewBox="0 0 297 232"><path opacity=".7" d="M141.606 95.79h24.556" stroke="#A64CED" stroke-width="147.601" stroke-linecap="round"></path><path d="M171.268 63.751c-1.26 4.162-10.463 9.09-16.121 6.315" stroke="#000" stroke-width="2" stroke-linecap="round" stroke-linejoin="round"></path><ellipse cx="138.537" cy="59.504" rx="3.069" ry="3.075" fill="#000"></ellipse><ellipse cx="164.32" cy="54.584" rx="3.069" ry="3.075" fill="#000"></ellipse><path d="M154 167.374 141.062 229H98l6.268-5.29a12.3 12.3 0 0 0 4.241-7.647L115.86 165M154 167.374V229h43l-4.955-4.189a12.3 12.3 0 0 1-4.313-10.475L192.086 165M41.518 57.054c18.8.033 18.266 12.76-2.257 7.864 6.007 1.68 15.145 3.604 12.345 8.32-2.8 4.716-13.59-.31-13.59-.31 7.618 4.162 9.607 7.313 6.978 9.598-1.149.999-3.11 1.39-5.387 1.209m54.093-2.12c-24.573 11.83-30.585-6.635-32.511-15.51-1.926-8.873 4.765-34.372-3.772-35.65-6.865-1.028-9.001 7.687-8.465 21.318-3.788-1.771-20.805-1.753-24.588 13.262-2.892 11.481 7.845 18.11 15.243 18.7m49.744 28.484c-21.6 4.683-41.767-2.506-49.744-28.484M206.682 113.677c5.816 3.433 9.409 4.266 16.531 3.403-6.212 3.797-9.002 6.101-12.258 10.636m7.515-52.443c12.952 3.735 38.732 15.844 38.233 34.404-.347 12.892-9.714 21.842-18.597 27.068m-23.937 14.59c5.466 4.286 17.854 11.054 23.678 3.843 2.219-2.747 2.096-5.16.77-7.181m-.511-11.252c-3.904 2.298-7.715 3.876-10.626 4.753 3.642.963 8.98 3.214 11.137 6.499m-.511-11.252c6.54 2.41 5.165 9.673.511 11.252" stroke="#000" stroke-width="2" stroke-linecap="round" stroke-linejoin="round"></path></svg><svg fill="none" id="tiktok" viewBox="0 0 46 46"><g clip-path="url(#tiktok_0)"><path d="M32.839.635h-7.63v30.837c0 3.674-2.934 6.692-6.586 6.692s-6.586-3.018-6.586-6.692c0-3.609 2.87-6.561 6.39-6.692v-7.742c-7.76.13-14.02 6.495-14.02 14.434 0 8.004 6.391 14.434 14.281 14.434 7.89 0 14.281-6.495 14.281-14.434V15.66c2.87 2.1 6.39 3.346 10.107 3.412V11.33C37.338 11.133 32.84 6.409 32.84.635Z" fill="#fff"></path></g><defs><clipPath id="tiktok_0"><path fill="#fff" transform="translate(.635 .635)" d="M0 0h45.271v45.271H0z"></path></clipPath></defs></svg><svg fill="none" id="twitter" viewBox="0 0 46 38"><path d="M14.872 37.663c17.083 0 26.427-14.153 26.427-26.427 0-.402 0-.802-.027-1.2a18.897 18.897 0 0 0 4.634-4.808 18.514 18.514 0 0 1-5.335 1.461 9.319 9.319 0 0 0 4.084-5.137 18.609 18.609 0 0 1-5.898 2.254 9.297 9.297 0 0 0-15.829 8.471A26.37 26.37 0 0 1 3.786 2.573a9.295 9.295 0 0 0 2.876 12.399 9.206 9.206 0 0 1-4.216-1.163v.118a9.29 9.29 0 0 0 7.452 9.105 9.27 9.27 0 0 1-4.194.159 9.3 9.3 0 0 0 8.677 6.45 18.633 18.633 0 0 1-13.746 3.85 26.297 26.297 0 0 0 14.237 4.165" fill="#fff"></path></svg></svg>