<svg xmlns="http://www.w3.org/2000/svg"><style>:root svg:not(:target){display:none}</style><svg fill="none" id="about" viewBox="0 0 423 489"><path opacity=".7" d="M3.333 346H61.5c70.969 0 128.5-57.531 128.5-128.5v0C190 146.531 132.469 89 61.5 89H-230" stroke="#FFAA4C" stroke-width="170" stroke-linecap="round"></path><path opacity=".7" d="M-73 602h278c70.692 0 128-57.308 128-128v0c0-70.692-57.308-128-128-128H-73" stroke="#A64CED" stroke-width="170" stroke-linecap="round"></path></svg><svg fill="none" id="analytics" viewBox="0 0 100 100"><path d="m5.227 69.18 17.846-38.356L40.92 69.179l17.846-38.355 17.846 38.355 17.846-38.355" stroke="#2FDBBC" stroke-width="10" stroke-linecap="round" stroke-linejoin="round"></path></svg><svg fill="none" id="contactless" viewBox="0 0 100 100"><path d="M39.484 18.672c1.61-4.353 7.767-4.353 9.378 0l6.444 17.414a5 5 0 0 0 2.954 2.954l17.413 6.444c4.353 1.61 4.353 7.767 0 9.378L58.26 61.306a5 5 0 0 0-2.954 2.954l-6.444 17.413c-1.61 4.353-7.768 4.353-9.378 0L33.04 64.26a5 5 0 0 0-2.954-2.954l-17.413-6.444c-4.354-1.61-4.354-7.768 0-9.378l17.413-6.444a5 5 0 0 0 2.954-2.954l6.444-17.413Z" stroke="#FFAA4C" stroke-width="10"></path></svg><svg fill="none" id="fraud" viewBox="0 0 101 100"><rect x="5.706" y="29.851" width="55.876" height="29.346" rx="14.673" stroke="#C1DB2F" stroke-width="10"></rect><rect x="37.089" y="46.966" width="55.876" height="29.346" rx="14.673" transform="rotate(-22.192 37.09 46.966)" stroke="#C1DB2F" stroke-width="10"></rect></svg><svg fill="none" id="increased" viewBox="0 0 100 100"><path d="M28.538 91.46C.136 81.13 8.376 56.697 31.036 49.51c28.326-8.982 26.6 26.511-.101 17.658-43.352-14.374-13.829-48.39 9.03-49.47" stroke="#A64CED" stroke-width="10" stroke-linecap="round" stroke-linejoin="round"></path><path d="m31.815 8.008 12.74 5.723-5.724 12.74" stroke="#A64CED" stroke-width="10" stroke-linecap="round" stroke-linejoin="round"></path></svg></svg>