<svg width="46" height="38" viewBox="0 0 46 38" fill="none" xmlns="http://www.w3.org/2000/svg">
<path d="M14.8719 37.6631C31.9553 37.6631 41.2991 23.5097 41.2991 11.236C41.2991 10.834 41.2991 10.4338 41.2719 10.0354C43.0897 8.72057 44.6588 7.09259 45.9058 5.22766C44.2108 5.97915 42.4125 6.47176 40.5712 6.68899C42.5102 5.52834 43.9614 3.70261 44.6546 1.55168C42.8314 2.63367 40.8367 3.39613 38.7567 3.80616C37.3563 2.31709 35.5042 1.33107 33.487 1.00067C31.4697 0.670279 29.3998 1.01393 27.5976 1.97846C25.7954 2.94298 24.3612 4.4746 23.5172 6.33631C22.6731 8.19801 22.4661 10.286 22.9283 12.2772C19.2356 12.092 15.6231 11.1323 12.3254 9.46046C9.02758 7.78865 6.11821 5.44205 3.78609 2.57299C2.59835 4.6177 2.23457 7.03823 2.76882 9.34174C3.30306 11.6452 4.69516 13.6585 6.66167 14.9717C5.1835 14.9284 3.73751 14.5296 2.44608 13.8091V13.9269C2.44666 16.0713 3.18899 18.1495 4.54714 19.8089C5.9053 21.4684 7.79567 22.6071 9.89762 23.0317C8.53022 23.4047 7.09551 23.4592 5.70375 23.191C6.2975 25.0364 7.45306 26.6501 9.00888 27.8066C10.5647 28.9631 12.443 29.6045 14.3812 29.6412C12.4555 31.1549 10.2502 32.274 7.89151 32.9346C5.53284 33.5952 3.06707 33.7843 0.635254 33.491C4.88283 36.2167 9.82504 37.6625 14.8719 37.6559" fill="white"/>
</svg>
